<svg width="50" height="50" xmlns="http://www.w3.org/2000/svg">

 <g>
  <title>background</title>
  <rect fill="none" id="canvas_background" height="52" width="52" y="-1" x="-1"/>
  <g display="none" overflow="visible" id="canvasGrid">
   <rect fill="url(#gridpattern)" stroke-width="0" y="0" x="0" height="100%" width="100%"/>
  </g>
 </g>
 <g>
  <title>Layer 1</title>
  <defs>
   <clipPath id="svg_6">
    <path id="svg_8" d="m2234.104916,1739.728556l77,0l0,100.69922l-77,0l0,-100.69922zm0,0"/>
   </clipPath>
  </defs>
  <rect id="svg_32" height="5" width="1" y="49.999998" x="762.499983" stroke-width="1.5" fill="#ffffff"/>
  <rect id="svg_38" height="1" width="4" y="133.999997" x="772.499983" stroke-width="1.5" fill="#ffffff"/>
  <defs>
   <clipPath id="svg_46">
    <path id="svg_48" d="m2625.848877,2567.115601l77,0l0,100.699219l-77,0l0,-100.699219zm0,0"/>
   </clipPath>
  </defs>
  <g stroke="null" id="svg_69">
   <g stroke="null" id="svg_70">
    <path stroke="rgb(0%,0%,0%)" id="svg_56" fill="#000000" stroke-width="0.035" stroke-linecap="round" stroke-linejoin="round" stroke-miterlimit="10" d="m8.572376,14.957085l0.511509,-0.533328l0.604753,-0.421329l0.682012,-0.295997l0.729965,-0.141332l0.743286,0.005334l0.724638,0.165331l0.674019,0.298664l0.599425,0.437329l0.50618,0.546661l0.375639,0.64266l0.237106,0.701325l0.090579,0.738659l-0.055946,0.735992l-0.210465,0.709325l4.90196,2.83997l0.594096,-0.743992l0.695332,-0.647993l0.785912,-0.530661l0.852515,-0.418662l0.905797,-0.279997l0.94043,-0.141332l0,-5.666607l-0.721974,-0.178665l-0.668691,-0.311997l-0.594096,-0.450662l-0.482203,-0.554661l-0.370311,-0.647993l-0.223785,-0.709325l-0.074595,-0.738659l0.074595,-0.735992l0.223785,-0.709325l0.370311,-0.65066l0.482203,-0.551994l0.594096,-0.450662l0.668691,-0.314664l0.721974,-0.175998l0,-5.613274l-1.915494,0.109332l-1.910166,0.26133l-1.875532,0.407996l-1.840899,0.554661l-1.792945,0.687992l-1.739663,0.831991l-1.665068,0.962656l-1.587809,1.093322l-1.494565,1.207987l-1.398657,1.31732l-1.294756,1.426651l-1.172208,1.522651l-1.057652,1.605317l4.85667,2.805304"/>
    <path stroke="rgb(0%,0%,0%)" id="svg_57" fill="#000000" stroke-width="0.035" stroke-linecap="round" stroke-linejoin="round" stroke-miterlimit="10" d="m46.170939,12.151782l-4.856669,2.805304l-0.511509,-0.533328l-0.607417,-0.421329l-0.682012,-0.295997l-0.729966,-0.141332l-0.743286,0.005334l-0.721973,0.165331l-0.676684,0.298664l-0.599424,0.437329l-0.498188,0.546661l-0.380968,0.64266l-0.239769,0.701325l-0.087915,0.738659l0.061274,0.735992l0.210465,0.709325l-4.909952,2.83997l-0.591432,-0.743992l-0.697997,-0.647993l-0.783248,-0.530661l-0.852515,-0.418662l-0.905797,-0.279997l-0.943095,-0.141332l0,-5.666607l0.724638,-0.178665l0.668691,-0.311997l0.591432,-0.450662l0.49286,-0.554661l0.359655,-0.647993l0.226449,-0.709325l0.074595,-0.738659l-0.074595,-0.735992l-0.226449,-0.709325l-0.359655,-0.65066l-0.49286,-0.551994l-0.591432,-0.450662l-0.668691,-0.314664l-0.724638,-0.175998l0,-5.613274l1.923487,0.109332l1.902173,0.26133l1.883525,0.407996l1.840899,0.554661l1.792945,0.687992l1.734335,0.831991l1.662404,0.962656l1.590473,1.093322l1.491901,1.207987l1.398657,1.31732l1.297421,1.426651l1.1802,1.522651l1.049658,1.605317"/>
    <path stroke="rgb(0%,0%,0%)" id="svg_58" fill="#000000" stroke-width="0.035" stroke-linecap="round" stroke-linejoin="round" stroke-miterlimit="10" d="m46.655807,12.983773l-4.85667,2.813303l0.210465,0.709326l0.061275,0.738659l-0.095908,0.735992l-0.237106,0.703993l-0.375639,0.639993l-0.498188,0.546661l-0.607417,0.437329l-0.674019,0.301331l-0.724638,0.162665l-0.743286,0.008l-0.727301,-0.143999l-0.682012,-0.29333l-0.607417,-0.423996l-0.511509,-0.538661l-4.904624,2.83997l0.348998,0.87999l0.210464,0.92799l0.069267,0.949323l-0.069267,0.949323l-0.210464,0.92799l-0.348998,0.879991l4.904624,2.834636l0.511509,-0.533328l0.607417,-0.423995l0.682012,-0.293331l0.727301,-0.143998l0.743286,0.007999l0.724638,0.162665l0.674019,0.30133l0.607417,0.437329l0.498188,0.546661l0.375639,0.639993l0.237106,0.703993l0.095908,0.735992l-0.061275,0.738659l-0.210465,0.709326l4.85667,2.805304l0.865835,-1.719982l0.721974,-1.781314l0.586104,-1.829314l0.444906,-1.869313l0.29838,-1.906647l0.151854,-1.917313l0,-1.925313l-0.151854,-1.917313l-0.29838,-1.906647l-0.444906,-1.869313l-0.586104,-1.837314l-0.721974,-1.781314l-0.865835,-1.719982"/>
    <path stroke="rgb(0%,0%,0%)" id="svg_59" fill="#000000" stroke-width="0.035" stroke-linecap="round" stroke-linejoin="round" stroke-miterlimit="10" d="m25.422862,31.332912l0.943095,-0.141332l0.905797,-0.279998l0.852515,-0.418662l0.783248,-0.530661l0.697997,-0.647993l0.591432,-0.743992l4.909952,2.83997l-0.210465,0.709326l-0.061274,0.735992l0.087915,0.738659l0.239769,0.701326l0.380968,0.64266l0.498188,0.546661l0.599424,0.437329l0.676684,0.298664l0.721973,0.165332l0.743286,0.005333l0.729966,-0.141332l0.682012,-0.295997l0.607417,-0.421329l0.511509,-0.538661l4.856669,2.810637l-1.049658,1.605316l-1.1802,1.522651l-1.297421,1.426652l-1.398657,1.317319l-1.491901,1.207987l-1.590473,1.093322l-1.662404,0.962656l-1.734335,0.823991l-1.792945,0.695993l-1.840899,0.554661l-1.883525,0.407996l-1.902173,0.26133l-1.923487,0.109333l0,-5.613274l0.724638,-0.175998l0.668691,-0.314664l0.591432,-0.450662l0.49286,-0.551994l0.359655,-0.65066l0.226449,-0.709325l0.074595,-0.735992l-0.074595,-0.738659l-0.226449,-0.709326l-0.359655,-0.647993l-0.49286,-0.559994l-0.591432,-0.445329l-0.668691,-0.319997l-0.724638,-0.170665l0,-5.666607"/>
    <path stroke="rgb(0%,0%,0%)" id="svg_60" fill="#000000" stroke-width="0.035" stroke-linecap="round" stroke-linejoin="round" stroke-miterlimit="10" d="m19.687036,28.570275l0.594096,0.743992l0.695332,0.647993l0.785912,0.530661l0.852515,0.418662l0.905797,0.279998l0.94043,0.141332l0,5.666607l-0.721974,0.170665l-0.668691,0.319997l-0.594096,0.445329l-0.482203,0.559994l-0.370311,0.647993l-0.223785,0.709326l-0.074595,0.738659l0.074595,0.735992l0.223785,0.709325l0.370311,0.65066l0.482203,0.551994l0.594096,0.450662l0.668691,0.314664l0.721974,0.175998l0,5.613274l-1.915494,-0.109333l-1.910166,-0.26133l-1.875532,-0.407996l-1.840899,-0.554661l-1.792945,-0.695993l-1.739663,-0.823991l-1.665068,-0.962656l-1.587809,-1.093322l-1.494565,-1.207987l-1.398657,-1.317319l-1.294756,-1.426652l-1.172208,-1.522651l-1.057652,-1.605316l4.85667,-2.810637l0.511509,0.538661l0.604753,0.421329l0.682012,0.295997l0.729965,0.141332l0.743286,-0.005333l0.724638,-0.165332l0.674019,-0.298664l0.599425,-0.437329l0.50618,-0.546661l0.375639,-0.64266l0.237106,-0.701326l0.090579,-0.738659l-0.055946,-0.735992l-0.210465,-0.709326l4.90196,-2.83997"/>
    <path stroke="rgb(0%,0%,0%)" id="svg_61" fill="#000000" stroke-width="0.035" stroke-linecap="round" stroke-linejoin="round" stroke-miterlimit="10" d="m3.230838,12.983773l4.85667,2.813303l-0.213129,0.709326l-0.053282,0.738659l0.087915,0.735992l0.239769,0.703993l0.37564,0.639993l0.503516,0.546661l0.599424,0.437329l0.676684,0.301331l0.721973,0.162665l0.743286,0.008l0.729966,-0.143999l0.682012,-0.29333l0.607417,-0.423996l0.511509,-0.538661l4.904624,2.83997l-0.341006,0.87999l-0.213129,0.92799l-0.074595,0.949323l0.074595,0.949323l0.213129,0.92799l0.341006,0.879991l-4.904624,2.834636l-0.511509,-0.533328l-0.607417,-0.423995l-0.682012,-0.293331l-0.729966,-0.143998l-0.743286,0.007999l-0.721973,0.162665l-0.676684,0.30133l-0.599424,0.437329l-0.503516,0.546661l-0.37564,0.639993l-0.239769,0.703993l-0.087915,0.735992l0.053282,0.738659l0.213129,0.709326l-4.85667,2.805304l-0.860507,-1.719982l-0.727301,-1.781314l-0.588768,-1.829314l-0.442242,-1.869313l-0.301044,-1.906647l-0.14919,-1.917313l0,-1.925313l0.14919,-1.917313l0.301044,-1.906647l0.442242,-1.869313l0.588768,-1.837314l0.727301,-1.781314l0.860507,-1.719982"/>
   </g>
  </g>
 </g>
</svg>